<?xml version="1.0" encoding="UTF-8" standalone="no"?><!DOCTYPE svg PUBLIC "-//W3C//DTD SVG 1.1//EN" "http://www.w3.org/Graphics/SVG/1.1/DTD/svg11.dtd"><svg width="100%" height="100%" viewBox="0 0 17 44" version="1.1" xmlns="http://www.w3.org/2000/svg" xmlns:xlink="http://www.w3.org/1999/xlink" xml:space="preserve" xmlns:serif="http://www.serif.com/" style="fill-rule:evenodd;clip-rule:evenodd;stroke-linejoin:round;stroke-miterlimit:1.41421;"><path d="M0.456,28.854c1.537,3.843 7.84,6.655 11.706,4.653c1.436,3.39 1.824,11.182 -5.773,8.866c-0.02,0.01 -0.329,-0.116 -0.632,-0.356c1.705,0.392 3.399,-0.907 3.399,-2.706c0,-1.53 -1.248,-2.777 -2.778,-2.777c-3.966,0 -3.531,6.134 0.666,6.689c1.737,0.228 3.064,-0.007 4.06,-0.545c3.576,-1.939 2.39,-6.175 1.617,-9.345c0.583,-0.406 3.37,-1.658 3.923,-4.478c0.661,-4.964 -2.573,-6.923 -6.441,-6.53l-1.097,-4.982c1.239,-1.059 2.469,-2.189 3.365,-3.561c2.729,-4.179 2.182,-9.552 -0.883,-13.492c-0.303,-0.388 -0.836,-0.385 -1.144,-0.001c-3.409,4.236 -3.491,7.634 -3.099,10.285c0.167,1.028 0.418,2.05 0.547,3.08c-0.991,0.869 -2.07,1.799 -3.096,2.835c-3.089,3.214 -5.93,7.732 -4.34,12.365Zm12.019,3.785c-0.607,-2.755 -1.151,-5.22 -1.747,-7.93c4.945,-0.063 5.461,5.742 1.747,7.93Zm-3.137,-27.702c0.558,-1.15 1.242,-2.479 2.366,-2.195c1.613,0.407 1.979,2.978 1.14,5.242c-0.784,2.116 -2.363,3.382 -2.7,3.804c-0.633,0.793 -1.28,1.409 -1.866,1.579c-0.332,-1.77 -0.169,-5.904 1.06,-8.43Zm-0.738,12.831l1.006,4.557c-4.1,0.721 -6.126,6.265 -2.206,8.136c0.445,0.212 0.49,0.096 0.169,-0.276c-1.673,-1.953 -0.435,-5.307 2.564,-5.474c0.627,2.839 1.187,5.377 1.812,8.207c-3.694,1.722 -8.415,0.237 -9.654,-3.925c-0.157,-0.233 -0.174,-0.484 -0.176,-0.754c-0.834,-5.098 3.145,-7.675 6.485,-10.471Z" style="fill-rule:nonzero;"/></svg>